<svg width="256" height="256" viewBox="0 0 256 256" fill="none" xmlns="http://www.w3.org/2000/svg">
<path d="M128.111 138.017H118.229V124.515H128.113C129.887 124.335 131.652 124.972 132.948 126.261C134.245 127.549 134.948 129.365 134.879 131.242C134.939 133.119 134.233 134.932 132.94 136.226C131.647 137.521 129.89 138.173 128.113 138.017H128.111ZM118.229 106.256H127.595C129.931 105.993 132.206 107.155 133.453 109.251C134.7 111.346 134.7 114.006 133.453 116.102C132.206 118.197 129.933 119.359 127.598 119.094H118.232V106.258L118.229 106.256ZM135.652 122.69L133.311 121.583L135.652 120.451C138.543 118.87 140.351 115.722 140.337 112.295C140.337 105.147 135.839 100.886 128.298 100.886H112.234V143.39H128.956C136.403 143.39 140.874 139.004 140.874 131.684C141.095 127.834 139.013 124.245 135.652 122.69V122.69ZM87.875 137.526V106.747H93.4754V132.171H106.504V137.526H87.875ZM158.814 137.507C156.002 137.684 153.245 136.634 151.205 134.609C149.166 132.581 148.025 129.759 148.056 126.82V106.749H153.753V126.577C153.623 128.556 154.559 130.442 156.185 131.473C157.805 132.501 159.844 132.501 161.467 131.473C163.09 130.442 164.027 128.556 163.899 126.577V106.749H169.547V126.798C169.579 129.732 168.44 132.55 166.405 134.577C164.371 136.602 161.621 137.655 158.814 137.485" fill="black"/>
<path d="M128.023 68.6406C106.58 68.6309 87.2409 81.8362 79.0282 102.099C70.8154 122.364 75.3443 145.692 90.5058 161.207C105.665 176.722 128.468 181.365 148.282 172.973C168.097 164.581 181.015 144.805 181.015 122.869C180.988 92.9411 157.282 68.682 128.023 68.6406V68.6406ZM128.023 174.837C107.461 174.847 88.9191 162.184 81.0458 142.753C73.1726 123.322 77.5185 100.954 92.0588 86.0808C106.599 71.2078 128.466 66.7614 147.461 74.8154C166.458 82.8694 178.838 101.836 178.828 122.869C178.787 151.556 156.066 174.796 128.025 174.837" fill="black"/>
<path d="M128.026 65.2031C105.212 65.1958 84.6384 79.2447 75.9032 100.801C67.1631 122.359 71.9834 147.175 88.1103 163.681C104.242 180.186 128.5 185.123 149.58 176.196C170.654 167.27 184.4 146.232 184.4 122.896C184.374 91.0546 159.153 65.2444 128.026 65.2055V65.2031ZM128.026 185.894C103.101 185.903 80.6271 170.554 71.0829 147C61.5411 123.448 66.8116 96.3372 84.4362 78.3063C102.061 60.2803 128.565 54.8907 151.588 64.6513C174.613 74.4118 189.62 97.402 189.61 122.896C189.572 157.672 162.02 185.852 128.026 185.894ZM160.747 32.7684C149.51 30.1234 135.747 35.1557 135.747 35.1557C133.291 36.06 130.696 36.5122 128.081 36.4927C125.425 36.5656 122.779 36.1524 120.273 35.2748C120.273 35.2748 106.51 30.121 95.2733 32.8875C95.2733 32.8875 84.2291 35.0122 86.8463 49.5886C86.8463 49.5886 87.441 38.2309 101.488 38.2552C101.488 38.2552 106.749 38.0413 117.771 43.1707C118.787 43.6934 119.837 44.148 120.916 44.5297C121.628 44.7679 122.392 44.9819 123.294 45.1739L124.058 45.3416C124.395 45.4146 124.737 45.4632 125.081 45.4851C127.108 45.7865 129.172 45.7865 131.199 45.4851L132.174 45.1034L133.079 44.9114H133.46C134.009 44.7728 134.548 44.605 135.08 44.4106C136.164 44.024 137.221 43.5694 138.246 43.0492C149.245 37.9197 154.506 38.1385 154.506 38.1385C168.552 38.1385 169.147 49.4671 169.147 49.4671C171.767 34.9879 160.72 32.7684 160.72 32.7684H160.747ZM32.0753 126.324C33.5681 114.543 43.1918 103.154 43.1918 103.154C44.9374 101.136 46.3098 98.8023 47.244 96.2716C48.171 93.7506 48.6525 91.0789 48.6646 88.3829C48.6646 88.3829 48.6646 73.2717 55.1365 63.4236C55.1365 63.4236 60.9897 53.6266 73.5532 61.3426C73.5532 61.3426 62.7907 57.7933 57.8621 71.3098C57.8621 71.3098 55.8227 76.2108 56.6775 88.7524C56.8195 89.9291 56.8749 91.1154 56.8436 92.3017C56.8219 93.1234 56.7593 93.9402 56.651 94.7522C56.651 95.0196 56.651 95.2919 56.5354 95.5374L56.3211 96.5901C55.8516 98.6443 55.11 100.623 54.1181 102.468C53.9736 102.736 53.834 103.008 53.6678 103.275L53.1694 104.085C53.0827 104.185 53.0033 104.292 52.9311 104.401C52.6108 104.887 52.2617 105.354 51.8885 105.799C51.1542 106.672 50.362 107.488 49.5193 108.249C40.9165 117.115 39.1853 122.259 39.1853 122.259C34.2086 135.756 44.5666 140.458 44.5666 140.458C30.2503 137.716 32.0753 126.324 32.0753 126.324ZM224 126.426C222.5 114.628 212.845 103.222 212.845 103.222C211.136 101.187 209.799 98.8509 208.896 96.3275C207.94 93.809 207.44 91.1324 207.42 88.4267C207.42 88.4267 207.42 73.2936 200.927 63.4333C200.927 63.4333 195.052 53.6193 182.447 61.3475C182.447 61.3475 193.27 57.7909 198.194 71.3317C198.194 71.3317 200.262 76.2375 199.381 88.7962C199.215 89.9752 199.135 91.164 199.145 92.3528C199.145 93.1137 199.145 93.9475 199.335 94.8081V95.5909C199.335 95.8364 199.477 96.2789 199.571 96.646C200.024 98.7075 200.761 100.689 201.762 102.534L202.212 103.343L202.735 104.153L202.952 104.471C203.272 104.958 203.621 105.424 203.997 105.869C204.733 106.744 205.528 107.561 206.375 108.325C215.055 117.081 216.697 122.23 216.697 122.23C221.691 135.747 211.299 140.458 211.299 140.458C225.76 137.711 223.81 126.304 223.81 126.304L224 126.426ZM47.8869 177.115C55.9118 185.835 70.3991 189.285 70.3991 189.285C75.5757 190.578 80.1456 193.68 83.319 198.056C83.319 198.056 92.0446 210.374 103.012 214.514C103.012 214.514 113.521 219.021 119.404 205.053C119.404 205.053 112.556 214.487 100.746 206.431C100.746 206.431 96.1666 203.599 89.7307 192.907C89.177 191.862 88.5461 190.855 87.8503 189.9C87.3712 189.232 86.8487 188.597 86.2853 188.004L85.7315 187.437L84.9586 186.723C83.4177 185.313 81.6913 184.134 79.8229 183.224L78.9802 182.831L78.0894 182.485L77.7042 182.34C77.1648 182.143 76.6207 181.977 76.0645 181.846C74.9208 181.579 73.7603 181.389 72.5925 181.277C60.5395 179.357 56.1285 176.179 56.1285 176.179C44.2705 168.147 50.1285 158.044 50.1285 158.044C39.8114 169.008 47.935 177.164 47.935 177.164L47.8869 177.115ZM208.07 177.115C200.084 185.835 185.626 189.285 185.626 189.285C180.413 190.549 175.805 193.654 172.61 198.056C172.61 198.056 163.901 210.374 152.955 214.514C152.955 214.514 142.467 219.021 136.597 205.053C136.597 205.053 143.428 214.487 155.24 206.431C155.24 206.431 159.788 203.599 166.212 192.907C166.768 191.857 167.404 190.851 168.112 189.9C168.569 189.285 169.099 188.646 169.677 188.004C169.845 187.802 170.033 187.615 170.231 187.437L170.999 186.723C172.554 185.32 174.297 184.151 176.171 183.249L177.013 182.855L177.904 182.51L178.289 182.364C179.276 182.016 179.924 181.87 179.924 181.87C181.09 181.591 182.269 181.394 183.461 181.277C195.49 179.357 199.891 176.179 199.891 176.179C211.728 168.147 205.882 158.044 205.882 158.044C216.177 169.008 208.073 177.164 208.073 177.164L208.07 177.115ZM128.705 224L133.732 190.291H128.705H123.701L128.705 224ZM222.567 153.649L192.813 137.526L191.224 142.716L189.61 147.907L222.567 153.649ZM33.4333 153.649L63.1856 137.526L64.7987 142.716L66.3878 147.907L33.4333 153.649ZM186.745 39.3273L170.864 70.1065L166.626 66.9267L162.389 63.7737L186.745 39.3273ZM69.253 39.3273L85.1344 70.1065L89.3744 66.9267L93.612 63.7737L69.253 39.3273Z" fill="black"/>
</svg>
