<?xml version="1.0" encoding="utf-8"?>
<!-- Generator: Adobe Illustrator 19.0.0, SVG Export Plug-In . SVG Version: 6.00 Build 0)  -->
<svg version="1.1" id="layer" xmlns="http://www.w3.org/2000/svg" xmlns:xlink="http://www.w3.org/1999/xlink" x="0px" y="0px"
	 viewBox="-153 -46 652 652" style="enable-background:new -153 -46 652 652;" xml:space="preserve">
<style type="text/css">
	.st0{fill:#131313;}
</style>
<path d="M389.2,312.2l-2.6,2.5c-2.3-2.2-5.4-3.4-8.6-3.2c-2-0.3-4,0.3-5.5,1.7c-1.5,1.3-2.4,3.3-2.3,5.3c-0.1,1.6,0.5,3.2,1.7,4.3
	c1.5,1.1,3.2,1.8,5,2l4.1,0.6c2.5,0.1,4.8,1,6.8,2.6c2.1,1.8,3.3,4.6,3.2,7.4c0,6.4-5.1,10.5-12.8,10.5l0.1,0
	c-4.8,0.4-9.5-1.4-12.8-4.9l2.7-2.7c2.6,2.8,6.3,4.3,10.1,4.1c5.4,0,8.7-2.6,8.7-6.9c0.1-1.7-0.5-3.4-1.8-4.7
	c-1.4-1.1-3.1-1.7-4.8-1.8l-4.3-0.7c-2.5-0.3-4.8-1.3-6.8-2.8c-1.9-1.8-2.9-4.3-2.8-6.9c0-6.4,4.5-10.5,11.8-10.5
	C382.3,307.9,386.2,309.3,389.2,312.2L389.2,312.2z M184.5,308.4V333c0,3.2,1.7,6.2,4.5,7.8c2.8,1.6,6.2,1.6,9,0
	c2.8-1.6,4.5-4.6,4.5-7.8v-24.6h3.7v24.9c0.1,3.4-1.2,6.7-3.7,9.1c-2.4,2.4-5.7,3.7-9.1,3.5c-3.4,0.2-6.7-1.1-9.1-3.5
	c-2.3-2.2-3.6-5.3-3.7-8.4v-25.6L184.5,308.4L184.5,308.4z M355.3,311.1c2.1,2,3.2,4.8,3.1,7.7c0.2,4.9-3.2,9.2-8.1,10l8.8,16.9
	l-4.6,0.2L346,329h-8.8v16.5h-4v-37.1h14.2C350.3,308.1,353.2,309.1,355.3,311.1L355.3,311.1z M447,308.4l8.7,17.8l8.6-17.8h4.3
	l-10.9,21.8v15.4h-4v-15.4l-11-21.8L447,308.4L447,308.4z M437.2,308.4v3.5h-10.7v33.7h-3.9v-33.7h-10.7v-3.5L437.2,308.4
	L437.2,308.4z M403.7,308.4v37.2h-3.9v-37.2L403.7,308.4L403.7,308.4z M324.4,308.4v3.5h-19v13.1h16.2v3.5h-16.2V342h19v3.6h-22.9
	v-37.2L324.4,308.4L324.4,308.4z M220.4,308.4l19.6,29.7v-29.7h3.9v37.2h-3.7l-19.6-29.8v29.8h-3.9v-37.2L220.4,308.4L220.4,308.4z
	 M258.8,308.4v37.2h-3.9v-37.2L258.8,308.4L258.8,308.4z M270.5,308.4l9.6,30.1l9.6-30.1h4.2l-12.2,37.2h-3.2l-12.2-37.2
	L270.5,308.4L270.5,308.4z M347,311.9h-9.8v13.8h9.8c2.6,0.3,5.1-1,6.4-3.2c1.4-2.2,1.4-5,0-7.2s-3.9-3.5-6.4-3.2L347,311.9
	L347,311.9z M276.6,267.4h-7.7c-0.4-3.2-3.2-5.6-6.4-5.6c-1.9-0.1-3.7,0.6-4.9,2c-1.5,1.6-1.9,3.4-1.9,10.3v0.8
	c0,7.6,0.3,9.4,1.9,11.1c1.2,1.4,3,2.2,4.9,2.1c3.2,0,6-2.4,6.4-5.6h7.7c-0.8,7.3-7.1,12.7-14.4,12.4v0c-3.9,0.1-7.8-1.5-10.5-4.3
	c-1.6-1.6-2.8-3.7-3.2-5.9c-0.5-3.2-0.7-6.4-0.7-9.7c-0.1-3.2,0.2-6.5,0.7-9.7c0.4-2.2,1.5-4.3,3.2-5.9c2.7-2.9,6.5-4.5,10.5-4.5
	C269.6,254.6,275.9,260,276.6,267.4L276.6,267.4z M241.8,255.3v6.8h-18.1v9.2h15.4v6.8h-15.4v9.6h18.1v6.8h-25.7v-39.3H241.8z
	 M290.8,255.3v17.1l13.8-17.1h9.2l-12.9,15.6l13.8,23.7h-8.9l-10-17.9l-5.1,6v11.8h-7.6v-39.3H290.8L290.8,255.3z M195.7,255.3
	c7.6,0,12.1,4.3,12.1,11c0,3.4-1.9,6.5-4.9,8.1c3.4,1.5,5.6,5,5.4,8.8c0,7.3-5,11.3-11.9,11.3H180v-39.3H195.7z M412.7,255.3v6.8
	h-10.2v32.4h-7.6v-32.4h-10.2v-6.8H412.7L412.7,255.3z M345.3,255.3v6.8h-18.1v9.2h15.4v6.8h-15.4v9.6h18.1v6.8h-25.7v-39.3H345.3z
	 M379.3,255.3v6.8h-10.2v32.4h-7.6v-32.4h-10.2v-6.8H379.3L379.3,255.3z M195.6,278.1h-8v9.7h8c1.3,0.1,2.7-0.3,3.7-1.2
	c1-0.9,1.5-2.3,1.4-3.6c0.1-1.3-0.5-2.7-1.4-3.6C198.3,278.3,196.9,277.9,195.6,278.1L195.6,278.1z M195.1,262h-7.5v9.1h7.5
	c1.7,0.1,3.3-0.7,4.2-2.1c0.9-1.5,0.9-3.3,0-4.8C198.4,262.7,196.8,261.9,195.1,262C195.1,262,195.1,262,195.1,262z M340.4,208.5
	l-4.9,4.7c-2.2-2-5.1-2.9-8-2.7c-4.1,0-6,2.3-6,5c0,1.1,0.4,2.1,1.2,2.8c1,0.9,2.3,1.4,3.6,1.5l4.6,0.6c2.7,0.2,5.3,1.3,7.5,3.1
	c2.1,2.2,3.2,5.2,3,8.3c0,7.6-6.4,11.9-14.5,11.9v0.1c-5.3,0.4-10.5-1.5-14.2-5.2l4.9-5c2.6,2.3,6,3.5,9.4,3.2
	c4.5,0,6.9-1.7,6.9-4.9c0.1-1.2-0.4-2.4-1.2-3.2c-1-0.8-2.2-1.3-3.5-1.4l-4.8-0.7c-2.8-0.2-5.5-1.4-7.6-3.2
	c-1.9-2.1-2.9-4.9-2.8-7.7c0-7,5.1-11.9,13.6-11.9C332.4,203.5,337,205.2,340.4,208.5L340.4,208.5z M303.9,207.9c4.2,4.3,4,9.4,4,15
	v0.7c0,5.9,0.4,11.6-4,16.1v0.1c-2.8,2.6-6.5,3.9-10.3,3.7h-14.1v-39.4h14.1C297.3,204,301,205.4,303.9,207.9L303.9,207.9z
	 M187.7,204.2v32.4h17.7v6.8H180v-39.3H187.7L187.7,204.2z M237.8,204.2v6.8h-18.1v9.2h15.4v6.8h-15.4v9.6h18.1v6.8h-25.7v-39.3
	H237.8z M271.5,204.2v6.8h-18.1v9.2h15.4v6.8h-15.4v9.6h18.1v6.8h-25.7v-39.3H271.5L271.5,204.2z M292.8,211h-5.8v25.7h5.8
	c2.2,0.2,4.3-0.8,5.7-2.4c1.4-1.7,1.6-4.3,1.7-9.8v-0.8c0-6-0.2-8.4-1.7-10.2v-0.1C297.1,211.8,295,210.9,292.8,211z"/>
<path class="st0" d="M-5.1,289h-13v-17.8h13c2.3-0.2,4.6,0.6,6.4,2.3c1.7,1.7,2.6,4.1,2.5,6.6c0.1,2.5-0.8,4.9-2.5,6.6
	C-0.4,288.4-2.7,289.2-5.1,289 M-18.1,247.3h12.3c3.1-0.3,6.1,1.2,7.7,3.9c1.6,2.8,1.6,6.3,0,9s-4.6,4.3-7.7,3.9h-12.3L-18.1,247.3
	L-18.1,247.3z M4.8,268.9l-3.1-1.5l3.1-1.5c3.8-2.1,6.2-6.2,6.2-10.7c0-9.4-5.9-15-15.8-15h-21.1v55.9h22c9.8,0,15.7-5.8,15.7-15.4
	C12,275.6,9.2,270.9,4.8,268.9 M-57.9,288.4v-40.5h7.4v33.4h17.1v7H-57.9z M35.2,288.4c-3.7,0.2-7.3-1.1-10-3.8
	c-2.7-2.7-4.2-6.4-4.1-10.2v-26.4h7.5V274c-0.2,2.6,1.1,5.1,3.2,6.4c2.1,1.4,4.8,1.4,6.9,0c2.1-1.4,3.4-3.8,3.2-6.4v-26.1h7.4v26.4
	c0,3.9-1.5,7.6-4.1,10.2C42.5,287.2,38.9,288.6,35.2,288.4 M-5.2,197.8c-28.2,0-53.6,17.4-64.4,44c-10.8,26.6-4.8,57.3,15.1,77.7
	C-34.6,339.9-4.6,346,21.4,335c26-11,43-37,43-65.9C64.4,229.8,33.2,197.8-5.2,197.8 M-5.2,337.5c-27,0-51.4-16.6-61.7-42.2
	c-10.3-25.6-4.6-55,14.5-74.5c19.1-19.6,47.8-25.4,72.8-14.8c24.9,10.6,41.2,35.5,41.2,63.2C61.5,306.8,31.6,337.4-5.2,337.5
	 M-5.2,193.3c-30,0-57,18.5-68.5,46.8c-11.5,28.3-5.1,61,16,82.7c21.2,21.7,53,28.2,80.7,16.5c27.7-11.7,45.7-39.4,45.7-70.1
	C68.8,227.3,35.7,193.3-5.2,193.3 M-5.2,352c-32.7,0-62.3-20.2-74.8-51.2c-12.5-31-5.6-66.6,17.5-90.3c23.1-23.7,58-30.8,88.2-18
	c30.2,12.8,50,43.1,49.9,76.6C75.6,314.9,39.4,351.9-5.2,352 M37.8,150.6c-14.8-3.5-32.8,3.1-32.8,3.1c-3.2,1.2-6.6,1.8-10.1,1.8
	c-3.5,0.1-7-0.4-10.3-1.6c0,0-18.1-6.8-32.8-3.1c0,0-14.5,2.8-11.1,22c0,0,0.8-14.9,19.2-14.9c0,0,6.9-0.3,21.4,6.5
	c1.3,0.7,2.7,1.3,4.1,1.8c0.9,0.3,1.9,0.6,3.1,0.8l1,0.2c0.4,0.1,0.9,0.2,1.3,0.2c2.7,0.4,5.4,0.4,8,0l1.3-0.5l1.2-0.3h0.5
	c0.7-0.2,1.4-0.4,2.1-0.7c1.4-0.5,2.8-1.1,4.2-1.8c14.4-6.7,21.4-6.5,21.4-6.5c18.4,0,19.2,14.9,19.2,14.9
	C52.3,153.5,37.7,150.6,37.8,150.6 M-131.2,273.7c2-15.5,14.6-30.5,14.6-30.5c2.3-2.7,4.1-5.7,5.3-9.1c1.2-3.3,1.8-6.8,1.9-10.4
	c0,0,0-19.9,8.5-32.8c0,0,7.7-12.9,24.2-2.7c0,0-14.1-4.7-20.6,13.1c0,0-2.7,6.4-1.6,22.9c0.2,1.5,0.3,3.1,0.2,4.7
	c0,1.1-0.1,2.2-0.2,3.2c0,0.4,0,0.7-0.2,1l-0.3,1.4c-0.6,2.7-1.6,5.3-2.9,7.7c-0.2,0.4-0.4,0.7-0.6,1.1l-0.7,1.1
	c-0.1,0.1-0.2,0.3-0.3,0.4c-0.4,0.6-0.9,1.2-1.4,1.8c-1,1.1-2,2.2-3.1,3.2c-11.3,11.7-13.6,18.4-13.6,18.4
	c-6.5,17.7,7.1,23.9,7.1,23.9C-133.6,288.6-131.2,273.7-131.2,273.7 M120.9,273.8c-2-15.5-14.7-30.5-14.7-30.5
	c-2.2-2.7-4-5.7-5.2-9.1c-1.3-3.3-1.9-6.8-1.9-10.4c0,0,0-19.9-8.5-32.9c0,0-7.7-12.9-24.3-2.7c0,0,14.2-4.7,20.7,13.1
	c0,0,2.7,6.5,1.6,23c-0.2,1.5-0.3,3.1-0.3,4.7c0,1,0,2.1,0.3,3.2v1c0,0.3,0.2,0.9,0.3,1.4c0.6,2.7,1.6,5.3,2.9,7.7l0.6,1.1l0.7,1.1
	l0.3,0.4c0.4,0.6,0.9,1.3,1.4,1.8c1,1.1,2,2.2,3.1,3.2c11.4,11.5,13.6,18.3,13.6,18.3c6.6,17.8-7.1,24-7.1,24
	c19-3.6,16.4-18.6,16.4-18.6 M-110.5,340.5c10.5,11.5,29.6,16,29.6,16c6.8,1.7,12.8,5.8,17,11.5c0,0,11.5,16.2,25.9,21.6
	c0,0,13.8,5.9,21.5-12.4c0,0-9,12.4-24.5,1.8c0,0-6-3.7-14.5-17.8c-0.7-1.4-1.6-2.7-2.5-4c-0.6-0.9-1.3-1.7-2.1-2.5l-0.7-0.7l-1-0.9
	c-2-1.9-4.3-3.4-6.7-4.6l-1.1-0.5l-1.2-0.5l-0.5-0.2c-0.7-0.3-1.4-0.5-2.1-0.6c-1.5-0.4-3-0.6-4.6-0.7c-15.8-2.5-21.6-6.7-21.6-6.7
	c-15.6-10.6-7.9-23.8-7.9-23.8C-121.1,329.8-110.4,340.5-110.5,340.5 M99.9,340.5c-10.5,11.5-29.5,16-29.5,16
	c-6.8,1.7-12.9,5.7-17.1,11.5c0,0-11.4,16.2-25.8,21.6c0,0-13.8,5.9-21.5-12.4c0,0,9,12.4,24.5,1.8c0,0,6-3.7,14.4-17.8
	c0.7-1.4,1.6-2.7,2.5-4c0.6-0.8,1.3-1.7,2.1-2.5c0.2-0.3,0.5-0.5,0.7-0.7l1-0.9c2-1.8,4.3-3.4,6.8-4.6l1.1-0.5l1.2-0.5l0.5-0.2
	c1.3-0.5,2.1-0.6,2.1-0.6c1.5-0.4,3.1-0.6,4.6-0.8c15.8-2.5,21.6-6.7,21.6-6.7c15.5-10.6,7.9-23.8,7.9-23.8
	C110.6,329.8,99.9,340.5,99.9,340.5 M-4.3,402.1l6.6-44.3h-6.6h-6.6L-4.3,402.1z M119,309.6l-39.1-21.2l-2.1,6.8l-2.1,6.8L119,309.6
	z M-129.5,309.6l39.1-21.2l2.1,6.8l2.1,6.8L-129.5,309.6z M71.9,159.2l-20.9,40.5l-5.6-4.2l-5.6-4.2L71.9,159.2z M-82.4,159.2
	l20.9,40.5l5.6-4.2l5.6-4.2L-82.4,159.2z"/>
</svg>
